<svg xmlns="http://www.w3.org/2000/svg" viewBox="0 0 920 720" role="img" aria-labelledby="title desc">
  <title id="title">AI interview dashboard preview</title>
  <desc id="desc">A stylized practice dashboard with a candidate video panel, voice waveform, coaching notes, and progress metrics.</desc>
  <defs>
    <linearGradient id="bg" x1="0" x2="1" y1="0" y2="1">
      <stop offset="0" stop-color="#182637"/>
      <stop offset=".48" stop-color="#102a2c"/>
      <stop offset="1" stop-color="#2a2636"/>
    </linearGradient>
    <linearGradient id="accent" x1="0" x2="1">
      <stop offset="0" stop-color="#0f766e"/>
      <stop offset=".55" stop-color="#d79b2b"/>
      <stop offset="1" stop-color="#e15f4f"/>
    </linearGradient>
    <filter id="soft" x="-20%" y="-20%" width="140%" height="140%">
      <feDropShadow dx="0" dy="18" stdDeviation="18" flood-color="#000" flood-opacity=".32"/>
    </filter>
  </defs>
  <rect width="920" height="720" fill="url(#bg)"/>
  <path d="M92 94h746a34 34 0 0 1 34 34v492a34 34 0 0 1-34 34H92a34 34 0 0 1-34-34V128a34 34 0 0 1 34-34Z" fill="#f7f9fb" filter="url(#soft)"/>
  <path d="M58 128a34 34 0 0 1 34-34h746a34 34 0 0 1 34 34v52H58Z" fill="#17202a"/>
  <circle cx="106" cy="139" r="10" fill="#e15f4f"/>
  <circle cx="138" cy="139" r="10" fill="#d79b2b"/>
  <circle cx="170" cy="139" r="10" fill="#0f766e"/>
  <rect x="212" y="125" width="216" height="28" rx="14" fill="#2d3b48"/>
  <rect x="96" y="222" width="354" height="262" rx="20" fill="#12212f"/>
  <circle cx="273" cy="333" r="68" fill="#f0c7a7"/>
  <path d="M192 468c21-65 64-98 129-98s108 33 129 98Z" fill="#0f766e"/>
  <path d="M219 310c14-58 61-86 119-57 26 13 41 37 43 66-51-29-96-31-162-9Z" fill="#273545"/>
  <rect x="516" y="222" width="264" height="32" rx="16" fill="#d8e0e7"/>
  <rect x="516" y="274" width="300" height="20" rx="10" fill="#e7edf2"/>
  <rect x="516" y="310" width="246" height="20" rx="10" fill="#e7edf2"/>
  <rect x="516" y="346" width="284" height="20" rx="10" fill="#e7edf2"/>
  <rect x="516" y="410" width="292" height="112" rx="18" fill="#edf6f5"/>
  <path d="M548 476c16-35 33-35 50 0s33 35 50 0 33-35 50 0 33 35 50 0" fill="none" stroke="url(#accent)" stroke-width="14" stroke-linecap="round"/>
  <rect x="96" y="532" width="176" height="70" rx="16" fill="#fff"/>
  <rect x="304" y="532" width="176" height="70" rx="16" fill="#fff"/>
  <rect x="512" y="552" width="300" height="18" rx="9" fill="#e6edf1"/>
  <rect x="512" y="552" width="234" height="18" rx="9" fill="url(#accent)"/>
  <text x="118" y="575" fill="#17202a" font-family="Arial, sans-serif" font-size="34" font-weight="700">84</text>
  <text x="174" y="575" fill="#5f6d7a" font-family="Arial, sans-serif" font-size="18" font-weight="700">clarity</text>
  <text x="326" y="575" fill="#17202a" font-family="Arial, sans-serif" font-size="34" font-weight="700">3.2</text>
  <text x="386" y="575" fill="#5f6d7a" font-family="Arial, sans-serif" font-size="18" font-weight="700">min</text>
</svg>
